# xmcd
#
# Track frame offsets:
#	150
#	17366
#	32889
#	55398
#	71204
#	91819
#	109876
#	126226
#	145218
#	164763
#	179551
#	196588
#	214884
#	233875
#
# Disc length: 3353 seconds
#
# Revision: 0
# Processed by: cddbd v1.5.2PL0 Copyright (c) Steve Scherf et al.
# Submitted via: EasyCDDAExtractor 11.5.0.1
#
DISCID=ce0d170e
DTITLE=popularidade - JAYNE
DYEAR=2000
DGENRE=sertanejo
TTITLE0=voce vai ver
TTITLE1=cavaleiros do ceu
TTITLE2=rainha do rodeio
TTITLE3=oraçao de rodeio
TTITLE4=preciso ser amada
TTITLE5=retratos na parede
TTITLE6=viola e paixao
TTITLE7=e agora o que e que eu faço
TTITLE8=enquanto a chuva cai
TTITLE9=se ainda existe amor
TTITLE10=dez segundos
TTITLE11=so o tempo vai dizer
TTITLE12=amigos para sempre
TTITLE13=estrada da esperança
EXTD=
EXTT0=
EXTT1=
EXTT2=
EXTT3=
EXTT4=
EXTT5=
EXTT6=
EXTT7=
EXTT8=
EXTT9=
EXTT10=
EXTT11=
EXTT12=
EXTT13=
PLAYORDER=
